#!OML:ASF F:\VICON\USERDATA\INSTALL\rory7\rory7.ASF
:FULLY-SPECIFIED
:DEGREES
1553
root 1.80862 18.7642 2.48316 -5.56198 -2.66605 3.35905
lowerback 5.33435 1.73321 -4.75392
upperback -0.270945 1.89407 -3.3424
thorax -3.31653 0.993821 -0.943465
lowerneck -9.74724 -9.37788 -10.8071
upperneck 20.9996 -12.3094 5.42443
head 9.22406 -6.13202 2.18765
rclavicle -3.02153e-014 6.36111e-015
rhumerus -21.0053 39.4522 -93.8313
rradius 110.57
rwrist -23.5522
rhand -49.3093 7.1574
rfingers 7.12502
rthumb -21.9261 -21.6201
lclavicle -3.02153e-014 6.36111e-015
lhumerus -36.1633 -37.2494 98.2983
lradius 104.738
lwrist 7.45335
lhand -25.8194 35.207
lfingers 7.12502
lthumb 0.720191 65.1855
rfemur 9.04501 17.7998 10.7053
rtibia 9.25909
rfoot -11.4013 -23.1742
rtoes -11.1931
lfemur 5.11744 -6.72236 -25.6317
ltibia 13.4342
lfoot -11.8614 13.464
ltoes -3.96787
1554
root 1.828 18.7618 2.47929 -5.56827 -2.55428 3.36187
lowerback 5.29286 1.73078 -4.78262
upperback -0.279776 1.89063 -3.37413
thorax -3.30222 0.992261 -0.958849
lowerneck -9.58665 -9.37881 -10.7635
upperneck 20.8259 -12.331 5.4482
head 9.13451 -6.14073 2.19573
rclavicle -5.96354e-015 2.54444e-014
rhumerus -20.8036 39.3712 -93.7697
rradius 110.855
rwrist -23.4889
rhand -49.0481 7.09292
rfingers 7.12502
rthumb -21.6752 -21.7137
lclavicle -5.96354e-015 2.54444e-014
lhumerus -35.4022 -37.0432 97.8318
lradius 104.408
lwrist 7.13177
lhand -25.4445 34.6609
lfingers 7.12502
lthumb 1.0823 64.6379
rfemur 8.76636 17.6908 10.607
rtibia 9.85007
rfoot -11.829 -23.0681
rtoes -10.5607
lfemur 5.14785 -6.88041 -25.7103
ltibia 13.3366
lfoot -11.7783 13.4624
ltoes -4.22631
1555
root 1.84569 18.7609 2.47679 -5.74305 -2.5041 3.41938
lowerback 5.48472 1.76414 -4.92292
upperback -0.263424 1.91205 -3.37735
thorax -3.39841 1.00621 -0.892358
lowerneck -9.72351 -9.40769 -10.6975
upperneck 20.9028 -12.3498 5.34566
head 9.17657 -6.15094 2.14117
rclavicle -6.5102e-015 9.54166e-015
rhumerus -20.5414 39.3204 -93.5888
rradius 111.133
rwrist -23.6284
rhand -48.7316 3.41038
rfingers 7.12502
rthumb -21.3712 -25.4311
lclavicle -6.5102e-015 9.54166e-015
lhumerus -34.9795 -36.945 97.6488
lradius 104.279
lwrist 7.22292
lhand -25.812 35.0315
lfingers 7.12502
lthumb 0.727346 65.01
rfemur 8.58904 17.6706 10.5164
rtibia 10.5207
rfoot -12.1059 -23.0233
rtoes -10.2157
lfemur 5.41229 -6.99975 -25.8779
ltibia 13.1674
lfoot -11.7484 13.563
ltoes -4.04073
1556
root 1.86136 18.7586 2.47327 -6.05021 -2.47252 3.60491
lowerback 5.81941 1.79548 -5.25616
upperback -0.189319 1.90868 -3.37763
thorax -3.52126 1.01094 -0.717133
lowerneck -10.0054 -9.4106 -10.7037
upperneck 21.0575 -12.3275 5.32719
head 9.27949 -6.13553 2.12369
rclavicle 8.44835e-016 3.18055e-015
rhumerus -20.1895 39.3661 -93.3309
rradius 111.411
rwrist -23.8242
rhand -48.0933 -2.64806
rfingers 7.12502
rthumb -20.7581 -31.5578
lclavicle 8.44835e-016 3.18055e-015
lhumerus -34.7718 -36.8052 97.6043
lradius 104.282
lwrist 7.58945
lhand -26.562 35.6333
lfingers 7.12502
lthumb 0.00297489 65.6131
rfemur 8.54113 17.5879 10.3033
rtibia 11.1249
rfoot -12.2337 -22.8623
rtoes -10.2123
lfemur 5.76587 -7.0581 -26.192
ltibia 13.0467
lfoot -11.6901 13.6902
ltoes -3.85352
1557
root 1.88023 18.757 2.47216 -6.16727 -2.43683 3.68062
lowerback 5.94731 1.79383 -5.37244
upperback -0.176883 1.88685 -3.4238
thorax -3.58221 1.0024 -0.702587
lowerneck -10.059 -9.36145 -10.6857
upperneck 21.0446 -12.2848 5.45028
head 9.28766 -6.10107 2.16626
rclavicle 1.18774e-014 1.90833e-014
rhumerus -20.0027 39.3649 -93.2742
rradius 111.719
rwrist -23.9079
rhand -48.0847 -1.93069
rfingers 7.12502
rthumb -20.7498 -30.8413
lclavicle 1.18774e-014 1.90833e-014
lhumerus -34.619 -36.6542 97.496
lradius 104.284
lwrist 8.10468
lhand -27.1031 35.9128
lfingers 7.12502
lthumb -0.519682 65.8919
rfemur 8.36453 17.4115 10.1344
rtibia 11.659
rfoot -12.3156 -22.6255
rtoes -10.4117
lfemur 5.90241 -6.9792 -26.3438
ltibia 13.0021
lfoot -11.6395 13.6194
ltoes -3.66531
1558
root 1.90309 18.7559 2.47244 -6.1108 -2.36617 3.57261
lowerback 5.91936 1.79856 -5.29036
upperback -0.257026 1.89733 -3.40559
thorax -3.64794 1.00826 -0.731458
lowerneck -9.86948 -9.35298 -10.7596
upperneck 20.9665 -12.3031 5.56947
head 9.24027 -6.10862 2.22502
rclavicle -1.09332e-015 8.74653e-015
rhumerus -20.0289 39.2406 -93.2351
rradius 112.041
rwrist -23.8497
rhand -48.9487 10.7831
rfingers 7.12502
rthumb -21.5798 -18.0345
lclavicle -1.09332e-015 8.74653e-015
lhumerus -34.6603 -36.4825 97.5501
lradius 104.265
lwrist 8.35694
lhand -27.1918 35.9736
lfingers 7.12502
lthumb -0.605381 65.9524
rfemur 8.08713 17.2144 10.1125
rtibia 12.1136
rfoot -12.3781 -22.4535
rtoes -10.4916
lfemur 5.8035 -6.77419 -26.2528
ltibia 13.0835
lfoot -11.6596 13.3245
ltoes -3.62889
1559
root 1.92559 18.7557 2.46882 -6.09824 -2.26105 3.48062
lowerback 5.96013 1.79972 -5.28207
upperback -0.302652 1.89621 -3.33331
thorax -3.72045 1.00985 -0.663731
lowerneck -9.71236 -9.37566 -10.8641
upperneck 20.8557 -12.3296 5.58797
head 9.18419 -6.13106 2.25198
rclavicle 3.47873e-015 2.3059e-014
rhumerus -19.9019 39.1323 -93.036
rradius 112.338
rwrist -23.6908
rhand -48.555 6.3796
rfingers 7.12502
rthumb -21.2016 -22.481
lclavicle 3.47873e-015 2.3059e-014
lhumerus -34.7251 -36.3016 97.6651
lradius 104.242
lwrist 8.53948
lhand -27.4303 35.8242
lfingers 7.12502
lthumb -0.835729 65.8023
rfemur 7.9007 17.0444 10.0831
rtibia 12.4439
rfoot -12.3871 -22.3341
rtoes -10.4994
lfemur 5.68445 -6.59532 -26.1908
ltibia 13.2869
lfoot -11.7228 13.0468
ltoes -3.30712
1560
root 1.94708 18.7584 2.46828 -6.16933 -2.16672 3.36716
lowerback 6.02232 1.76951 -5.20184
upperback -0.280446 1.85937 -3.30033
thorax -3.72962 0.990291 -0.67215
lowerneck -9.73207 -9.35057 -10.8167
upperneck 20.7692 -12.2857 5.54657
head 9.14767 -6.11043 2.23697
rclavicle -1.74434e-014 2.38542e-014
rhumerus -19.6405 39.0823 -92.8671
rradius 112.617
rwrist -23.5791
rhand -48.3853 4.67704
rfingers 7.12502
rthumb -21.0386 -24.2017
lclavicle -1.74434e-014 2.38542e-014
lhumerus -34.7454 -36.1077 97.7036
lradius 104.277
lwrist 8.80985
lhand -27.9432 35.5096
lfingers 7.12502
lthumb -1.33105 65.4852
rfemur 7.82017 16.8783 10.1145
rtibia 12.736
rfoot -12.3464 -22.1922
rtoes -10.7209
lfemur 5.68511 -6.45878 -26.1324
ltibia 13.4863
lfoot -11.7909 12.8652
ltoes -2.69828
1561
root 1.9691 18.7596 2.4743 -6.21826 -2.08318 3.21998
lowerback 5.91986 1.72801 -5.0415
upperback -0.239043 1.82617 -3.30135
thorax -3.62248 0.968995 -0.754474
lowerneck -9.74647 -9.31274 -10.7314
upperneck 20.7268 -12.2433 5.54241
head 9.1253 -6.08444 2.22834
rclavicle 1.2921e-015 1.35174e-014
rhumerus -19.4724 39.033 -92.7927
rradius 112.871
rwrist -23.3812
rhand -48.3411 5.04368
rfingers 7.12502
rthumb -20.9961 -23.8398
lclavicle 1.2921e-015 1.35174e-014
lhumerus -34.8314 -35.8632 97.7446
lradius 104.409
lwrist 8.85116
lhand -28.0444 35.1977
lfingers 7.12502
lthumb -1.42877 65.1727
rfemur 7.73754 16.7001 10.1769
rtibia 13.073
rfoot -12.3474 -21.9925
rtoes -10.8978
lfemur 5.67793 -6.46414 -26.0568
ltibia 13.6502
lfoot -11.8675 12.8124
ltoes -2.83591
1562
root 1.9901 18.7562 2.4791 -6.25557 -2.01479 3.18922
lowerback 5.78156 1.71345 -5.01921
upperback -0.208284 1.82024 -3.3207
thorax -3.51113 0.963687 -0.780839
lowerneck -9.56515 -9.28898 -10.7091
upperneck 20.5961 -12.244 5.62167
head 9.05033 -6.08039 2.26154
rclavicle -2.96686e-014 0
rhumerus -19.3647 38.9567 -92.7387
rradius 113.114
rwrist -22.8905
rhand -48.2513 4.87854
rfingers 7.12502
rthumb -20.9099 -24.0145
lclavicle -2.96686e-014 0
lhumerus -34.9119 -35.7638 97.7735
lradius 104.497
lwrist 8.84451
lhand -27.8663 34.9831
lfingers 7.12502
lthumb -1.25681 64.9592
rfemur 7.61718 16.5466 10.0881
rtibia 13.4548
rfoot -12.4227 -21.768
rtoes -10.8273
lfemur 5.6432 -6.64925 -26.1336
ltibia 13.8031
lfoot -11.9686 12.9195
ltoes -3.53967
1563
root 2.00947 18.7546 2.47742 -6.27317 -1.9912 3.05022
lowerback 5.7394 1.70973 -4.94457
upperback -0.18934 1.82656 -3.27001
thorax -3.46699 0.965214 -0.768468
lowerneck -9.51249 -9.27404 -10.6661
upperneck 20.5331 -12.2313 5.61622
head 9.01431 -6.07311 2.25811
rclavicle 2.4699e-014 -4.77083e-015
rhumerus -19.1765 38.881 -92.5821
rradius 113.399
rwrist -22.5497
rhand -47.9858 4.134
rfingers 7.12502
rthumb -20.6548 -24.787
lclavicle 2.4699e-014 -4.77083e-015
lhumerus -34.8875 -35.7913 97.8137
lradius 104.489
lwrist 8.94627
lhand -27.8411 35.0489
lfingers 7.12502
lthumb -1.23242 65.0251
rfemur 7.36204 16.4186 10.1203
rtibia 13.926
rfoot -12.401 -21.5865
rtoes -11.0062
lfemur 5.63602 -6.86355 -26.0843
ltibia 13.8677
lfoot -12.084 13.0499
ltoes -3.42017
1564
root 2.02858 18.7558 2.46991 -6.24632 -1.98542 2.75109
lowerback 5.7524 1.69047 -4.72132
upperback -0.160328 1.82072 -3.15988
thorax -3.44012 0.958865 -0.777718
lowerneck -9.70925 -9.30006 -10.6013
upperneck 20.5674 -12.2303 5.4865
head 9.04917 -6.07497 2.19521
rclavicle -1.16289e-014 3.02153e-014
rhumerus -18.8912 38.8433 -92.324
rradius 113.676
rwrist -22.4082
rhand -47.8728 4.11967
rfingers 7.12502
rthumb -20.5461 -24.8131
lclavicle -1.16289e-014 3.02153e-014
lhumerus -34.7365 -35.7924 97.8358
lradius 104.427
lwrist 9.0617
lhand -28.0461 35.2792
lfingers 7.12502
lthumb -1.43042 65.2541
rfemur 6.9645 16.2559 10.3204
rtibia 14.4773
rfoot -12.233 -21.4126
rtoes -11.5914
lfemur 5.59525 -7.03119 -25.8353
ltibia 13.864
lfoot -12.1232 13.1434
ltoes -3.01989
1565
root 2.04922 18.7556 2.46446 -6.2664 -1.91402 2.75859
lowerback 5.82049 1.68017 -4.78734
upperback -0.154311 1.79824 -3.14517
thorax -3.47428 0.949306 -0.725876
lowerneck -9.7233 -9.31477 -10.6295
upperneck 20.5044 -12.2441 5.50338
head 9.03435 -6.08147 2.20331
rclavicle 2.18663e-015 -3.97569e-015
rhumerus -18.7245 38.822 -92.1593
rradius 113.895
rwrist -22.0249
rhand -48.1206 4.06166
rfingers 7.12502
rthumb -20.7843 -24.8452
lclavicle 2.18663e-015 -3.97569e-015
lhumerus -34.6949 -35.8424 97.8993
lradius 104.376
lwrist 9.30315
lhand -28.2784 35.3243
lfingers 7.12502
lthumb -1.65477 65.2976
rfemur 6.63801 16.0127 10.1479
rtibia 15.0245
rfoot -12.177 -21.1388
rtoes -11.8637
lfemur 5.57102 -7.08003 -25.9205
ltibia 13.9054
lfoot -12.1124 13.1178
ltoes -2.99906
